<?xml version="1.0" standalone="no"?>
<!DOCTYPE svg PUBLIC "-//W3C//DTD SVG 20010904//EN"
 "http://www.w3.org/TR/2001/REC-SVG-20010904/DTD/svg10.dtd">
<svg version="1.0" xmlns="http://www.w3.org/2000/svg"
 width="2944.000000pt" height="2944.000000pt" viewBox="0 0 2944.000000 2944.000000"
 preserveAspectRatio="xMidYMid meet">
<metadata>
Created by potrace 1.14, written by Peter Selinger 2001-2017
</metadata>
<g transform="translate(0.000000,2944.000000) scale(0.100000,-0.100000)"
fill="#000000" stroke="none">
<path d="M1808 18505 c-2 -1 -39 -5 -83 -9 -44 -4 -93 -9 -110 -11 -68 -10
-276 -64 -285 -74 -3 -3 -14 -7 -25 -9 -34 -5 -256 -118 -330 -167 -187 -126
-336 -277 -461 -470 -63 -97 -164 -290 -164 -315 0 -9 -4 -20 -9 -25 -20 -22
-93 -269 -106 -361 -4 -21 -9 -50 -11 -64 -7 -35 -17 -127 -18 -172 -1 -21 -3
-38 -6 -38 -12 0 0 -392 16 -495 11 -77 13 -92 19 -120 3 -16 8 -38 11 -47 3
-9 7 -26 9 -39 14 -72 79 -265 97 -286 6 -7 8 -13 5 -13 -9 0 87 -187 127
-247 19 -29 33 -53 30 -53 -3 0 1 -6 8 -13 7 -8 24 -29 38 -47 47 -62 82 -105
98 -121 10 -9 24 -25 33 -35 23 -28 98 -95 149 -134 25 -19 47 -38 50 -41 24
-31 271 -167 350 -194 3 -1 12 -5 20 -8 50 -21 180 -58 256 -72 133 -25 321
-37 342 -22 7 6 12 6 12 0 0 -5 12 -8 28 -6 15 1 54 5 87 8 33 3 74 8 90 10
17 3 46 8 65 11 19 2 60 12 90 20 30 8 66 17 79 20 13 3 32 9 42 14 10 6 26
10 37 10 11 0 25 7 32 15 7 8 21 15 31 15 21 0 60 19 71 35 4 6 8 7 8 3 0 -4
35 13 77 38 118 70 215 151 305 255 57 66 148 194 148 209 0 5 4 10 8 10 4 0
15 15 23 33 9 17 38 77 66 132 76 152 78 138 -21 185 -47 22 -89 40 -94 40 -4
0 -20 -28 -36 -62 -90 -204 -200 -356 -353 -489 -44 -39 -143 -103 -183 -118
-19 -8 -40 -18 -45 -22 -19 -14 -142 -56 -159 -53 -9 1 -16 -1 -16 -5 0 -4 -6
-8 -12 -9 -7 0 -33 -3 -58 -7 -25 -3 -73 -8 -106 -9 -34 -2 -66 -6 -71 -9 -6
-4 -13 -4 -16 0 -4 3 -37 8 -74 9 -76 4 -107 8 -143 18 -14 3 -34 8 -45 10
-11 1 -27 6 -35 9 -8 3 -33 11 -54 18 -61 18 -234 113 -256 139 -3 3 -21 17
-40 30 -41 29 -152 140 -189 190 -14 19 -28 37 -31 40 -29 27 -175 288 -186
335 -2 6 -16 44 -31 85 -16 41 -30 77 -30 80 0 3 -6 25 -13 50 -7 25 -14 54
-15 65 -2 11 -6 31 -9 45 -10 41 -24 137 -32 219 -9 88 -11 403 -3 434 5 19 4
25 -3 21 -7 -4 -8 -2 -4 5 4 6 10 37 13 69 2 31 6 66 7 77 5 39 18 130 22 150
2 11 7 34 10 50 26 146 109 389 172 505 73 133 204 291 305 365 15 11 33 25
40 30 22 20 147 86 147 79 0 -4 9 1 21 12 12 10 22 17 23 15 1 -4 56 11 96 26
8 3 27 7 42 9 15 2 47 8 70 13 47 11 278 8 318 -3 14 -4 33 -9 42 -10 29 -4
158 -59 158 -68 0 -4 6 -8 14 -8 20 0 135 -91 198 -157 31 -33 81 -98 111
-144 51 -79 147 -267 147 -289 0 -6 4 -18 10 -28 14 -24 90 -259 106 -327 1
-5 4 -22 7 -37 8 -42 13 -45 59 -44 24 1 51 -2 61 -6 9 -5 17 -5 17 0 0 5 18
7 39 5 l40 -3 -2 250 c-1 138 -5 250 -9 250 -4 0 -4 10 0 23 7 19 8 42 2 50
-6 8 -4 87 3 87 4 0 5 5 1 11 -4 6 -8 138 -10 293 -3 154 -6 286 -8 292 -3 7
-40 11 -101 11 l-96 0 -27 -41 c-14 -22 -35 -57 -45 -76 -11 -19 -22 -39 -26
-43 -4 -4 -39 10 -77 31 -68 39 -229 112 -255 116 -8 1 -18 4 -24 8 -14 8
-152 46 -195 53 -19 3 -42 8 -50 10 -40 10 -353 28 -362 20z"/>
<path d="M13860 18376 c1 -129 1 -130 30 -131 54 -2 185 -35 250 -62 115 -49
161 -94 181 -176 19 -75 21 -2679 3 -2751 -24 -94 -108 -162 -209 -172 -16 -1
-30 -3 -30 -4 0 -1 -18 -4 -40 -6 -22 -2 -58 -5 -80 -8 -22 -2 -54 -4 -72 -5
-28 -1 -32 -4 -31 -28 0 -16 -1 -32 -2 -38 -1 -5 -1 -14 0 -20 1 -5 2 -29 2
-52 l0 -43 77 0 c91 -1 1360 -1 1381 0 12 0 15 17 15 89 0 73 -3 89 -15 89
-13 0 -48 5 -115 17 -11 2 -31 6 -45 9 -14 3 -38 9 -55 12 -54 12 -130 50
-167 85 -69 66 -68 56 -66 784 l3 650 830 0 830 0 0 -665 c-1 -609 -2 -669
-19 -717 -21 -64 -80 -119 -146 -138 -36 -10 -81 -18 -123 -21 -29 -3 -68 -6
-87 -8 -19 -2 -50 -4 -67 -5 l-33 -1 0 -90 0 -90 48 0 c26 -1 355 -1 732 -1
651 0 684 1 690 18 4 15 5 109 1 149 0 7 -27 15 -58 19 -99 13 -150 22 -173
32 -8 3 -24 8 -34 10 -11 2 -25 8 -33 14 -7 6 -13 8 -13 5 0 -14 -89 55 -110
84 -12 17 -18 30 -14 30 3 0 1 6 -5 14 -6 7 -14 33 -17 57 -9 69 -10 1219 -1
1219 5 0 5 5 2 11 -5 8 -8 1422 -3 1477 1 6 4 12 7 12 3 0 7 11 7 25 2 35 43
93 77 108 15 6 27 15 27 18 0 6 99 32 160 43 14 3 25 5 25 6 0 3 45 9 98 13
27 2 52 9 55 15 6 8 7 112 3 158 -1 8 -204 11 -736 11 l-735 -1 0 -88 c0 -63
4 -88 13 -89 6 0 19 -2 27 -4 13 -3 66 -12 105 -19 6 -1 16 -5 23 -9 6 -5 12
-6 12 -3 0 9 143 -45 180 -69 47 -30 65 -52 92 -110 22 -50 22 -52 23 -622 0
-508 -1 -573 -15 -574 -18 -1 -1607 -1 -1633 0 -16 1 -17 34 -17 589 1 638 2
643 58 707 24 27 94 63 139 71 14 3 52 11 85 19 32 7 61 14 63 14 3 1 6 1 8 2
1 1 23 2 49 3 26 1 50 5 54 9 4 4 8 45 8 91 l1 83 -738 0 -738 0 1 -51z"/>
<path d="M4918 17414 c-2 -1 -37 -5 -78 -8 -41 -4 -95 -11 -120 -17 -45 -10
-73 -16 -100 -21 -71 -15 -232 -92 -330 -159 -65 -44 -180 -153 -236 -224 -21
-27 -42 -51 -46 -53 -5 -2 -8 -7 -8 -12 0 -4 -20 -40 -44 -80 -44 -71 -116
-237 -119 -272 -1 -10 -4 -18 -8 -18 -4 0 -6 -6 -6 -12 1 -15 -12 -87 -20
-108 -23 -60 -38 -425 -22 -515 4 -22 10 -58 13 -80 3 -22 15 -76 26 -120 11
-44 22 -85 23 -92 2 -7 6 -16 10 -19 4 -4 7 -14 7 -22 0 -15 74 -172 100 -212
97 -148 173 -235 281 -320 66 -52 156 -110 170 -110 6 0 17 -6 24 -14 13 -13
164 -72 210 -82 131 -29 194 -37 305 -37 95 0 275 15 275 23 0 2 16 5 59 14
195 37 455 199 586 366 14 18 30 37 35 44 80 86 184 313 225 491 40 170 45
215 45 395 0 199 -20 347 -61 462 -9 24 -17 51 -19 60 -10 47 -120 250 -160
294 -5 7 -21 26 -35 44 -42 54 -153 158 -210 197 -30 21 -57 41 -60 45 -8 11
-162 85 -205 98 -22 7 -44 16 -50 20 -5 4 -23 10 -40 13 -16 3 -43 8 -60 12
-92 19 -152 26 -263 29 -50 2 -93 2 -94 0z m175 -200 c23 -4 44 -8 47 -9 24
-3 130 -49 130 -56 0 -5 6 -9 14 -9 16 0 176 -155 176 -170 0 -5 6 -15 13 -22
35 -35 116 -242 137 -348 5 -25 11 -54 14 -65 2 -11 7 -40 10 -65 3 -25 8 -55
10 -68 15 -75 22 -366 11 -463 -3 -30 -8 -76 -11 -104 -6 -64 -11 -99 -14
-102 -1 -2 -4 -12 -5 -23 -1 -11 -4 -23 -5 -27 -1 -5 -2 -11 -1 -15 1 -10 -59
-210 -67 -223 -4 -5 -7 -12 -8 -15 0 -3 -6 -18 -12 -33 -7 -16 -12 -33 -12
-38 0 -5 -4 -9 -8 -9 -5 0 -16 -17 -26 -37 -24 -51 -69 -108 -136 -173 -131
-128 -314 -172 -525 -126 -35 7 -109 39 -137 58 -14 10 -31 18 -38 18 -6 0 -8
5 -5 10 3 6 2 10 -2 10 -30 0 -193 200 -193 237 0 7 -5 13 -10 13 -6 0 -9 3
-8 8 1 4 -6 25 -16 47 -23 52 -54 146 -73 215 -14 53 -19 84 -28 160 -2 19 -5
35 -6 35 -12 0 -17 460 -6 555 10 85 11 93 20 108 5 6 4 12 -1 12 -5 0 3 48
18 108 26 100 36 130 63 192 6 14 11 28 11 31 1 3 24 44 53 90 91 151 238 264
368 286 17 3 48 8 70 12 47 8 128 6 188 -5z"/>
<path d="M19417 17414 c-1 -1 -33 -4 -72 -7 -169 -15 -327 -63 -458 -139 -26
-15 -52 -28 -57 -28 -6 0 -10 -4 -10 -8 0 -5 -8 -13 -19 -18 -46 -22 -221
-184 -221 -204 0 -5 -4 -10 -9 -10 -5 0 -31 -33 -57 -72 -27 -40 -51 -75 -54
-78 -11 -10 -87 -171 -95 -202 -2 -5 -4 -10 -5 -13 -1 -3 -3 -8 -5 -12 -1 -5
-5 -15 -8 -23 -20 -47 -55 -213 -64 -305 -7 -65 -6 -339 1 -390 3 -22 8 -60
11 -84 3 -25 8 -48 10 -51 2 -4 6 -20 9 -36 22 -125 134 -365 218 -469 42 -51
88 -105 113 -130 75 -75 239 -195 268 -195 9 0 17 -4 17 -9 0 -11 166 -74 252
-95 184 -46 441 -38 648 18 127 35 289 121 399 211 102 85 223 240 289 370 32
63 97 220 92 220 -1 0 1 7 4 15 2 8 8 29 12 45 31 129 48 237 48 327 1 38 4
68 8 68 3 0 4 17 2 38 -3 20 -7 73 -9 117 -2 44 -7 94 -9 110 -14 93 -17 111
-22 125 -3 8 -8 26 -10 39 -6 30 -42 133 -65 189 -10 23 -17 43 -16 45 1 1 -8
16 -21 34 -12 17 -22 34 -22 38 0 12 -90 136 -129 179 -144 155 -232 219 -431
309 -47 22 -220 64 -295 73 -56 6 -233 12 -238 8z m183 -199 c19 -3 42 -9 50
-12 8 -3 17 -7 20 -7 26 -5 100 -40 100 -47 0 -5 7 -9 15 -9 8 0 46 -30 84
-67 96 -95 158 -196 201 -333 12 -36 24 -72 27 -80 3 -8 7 -22 8 -30 1 -8 5
-28 9 -45 23 -104 38 -217 40 -302 0 -40 3 -73 6 -73 3 0 4 -19 3 -42 -3 -46
-3 -54 -2 -95 2 -38 -10 -231 -16 -257 -2 -12 -7 -39 -10 -61 -3 -22 -7 -47
-10 -55 -2 -8 -6 -26 -9 -40 -11 -70 -51 -194 -69 -217 -5 -7 -6 -13 -3 -13
11 0 -64 -140 -99 -185 -130 -170 -245 -234 -447 -249 -27 -2 -48 0 -48 5 0 6
-8 6 -19 0 -10 -6 -20 -8 -23 -6 -2 3 -22 7 -44 11 -121 19 -249 100 -329 209
-17 22 -33 42 -36 45 -21 18 -125 240 -112 240 3 0 1 6 -5 13 -13 15 -35 91
-45 154 -2 12 -6 25 -9 29 -4 3 -4 12 -1 20 3 8 1 14 -3 14 -5 0 -9 15 -10 33
0 17 -4 68 -9 112 -11 98 -11 406 -1 495 16 135 15 129 31 210 9 45 9 47 25
100 7 25 14 50 16 55 1 6 17 44 36 85 43 92 116 200 165 243 20 18 41 37 47
42 28 26 94 65 109 65 9 0 17 4 17 8 0 10 85 32 150 39 25 3 46 6 48 8 4 3
113 -4 152 -10z"/>
<path d="M25345 17405 c-49 -7 -117 -21 -150 -31 -33 -10 -62 -19 -65 -19 -3
-1 -18 -8 -35 -15 -16 -7 -33 -14 -37 -14 -4 -1 -13 -7 -19 -13 -7 -7 -19 -13
-26 -13 -7 0 -13 -4 -13 -9 0 -5 -9 -13 -21 -16 -39 -13 -219 -204 -219 -233
0 -5 -6 -15 -13 -21 -8 -6 -20 -30 -27 -53 -8 -24 -17 -47 -21 -53 -4 -5 -10
-26 -13 -45 -4 -19 -9 -48 -12 -63 -14 -72 -10 -166 11 -287 6 -36 66 -170 76
-170 4 0 11 -9 14 -20 9 -28 172 -190 191 -190 4 0 15 -7 24 -15 36 -33 193
-105 325 -150 77 -26 147 -50 155 -53 8 -3 18 -6 23 -7 4 -2 8 -3 10 -5 1 -1
9 -3 17 -5 23 -5 128 -43 210 -78 145 -60 238 -134 285 -228 15 -28 24 -54 21
-57 -3 -3 -1 -11 5 -18 12 -15 16 -130 5 -193 -14 -86 -67 -172 -144 -233 -33
-27 -136 -66 -204 -78 -238 -44 -459 27 -642 205 -49 48 -136 162 -129 169 3
3 1 6 -4 6 -15 0 -90 149 -124 245 l-28 80 -85 3 -86 3 5 -173 c12 -435 19
-661 23 -680 1 -4 43 -6 94 -5 l92 2 19 65 c11 36 21 71 23 78 3 10 8 10 26 1
13 -7 25 -15 28 -19 14 -20 222 -116 310 -143 121 -38 343 -54 463 -33 20 3
54 9 74 12 105 17 256 78 349 142 80 54 214 186 214 211 0 5 7 14 15 21 8 7
12 16 9 21 -3 5 -1 9 3 9 18 0 65 134 82 230 13 74 5 241 -14 313 -16 61 -59
158 -85 191 -40 53 -141 147 -195 182 -33 21 -63 43 -66 47 -3 5 -8 8 -10 6
-2 -1 -43 17 -91 40 -90 43 -204 86 -388 147 -58 19 -113 40 -124 45 -10 6
-30 13 -44 15 -23 5 -124 51 -182 85 -119 69 -183 183 -181 319 1 73 6 95 35
155 43 86 157 173 251 190 17 2 41 7 55 10 14 3 54 5 90 5 182 2 314 -53 446
-185 55 -54 144 -181 144 -204 0 -4 8 -23 17 -42 10 -19 18 -38 19 -44 1 -5 9
-35 17 -65 l14 -55 84 0 84 0 -2 95 c0 52 -4 147 -7 210 -3 63 -9 178 -12 255
-6 124 -9 182 -13 222 -1 9 -26 12 -90 11 l-89 -1 -28 -63 -29 -63 -67 29
c-38 15 -68 26 -68 23 0 -3 -7 1 -17 8 -9 8 -18 13 -20 12 -1 -2 -4 -3 -5 -2
-2 0 -10 2 -19 4 -10 1 -49 10 -88 19 -136 31 -272 38 -406 21z"/>
<path d="M28120 17408 c-54 -6 -86 -12 -170 -33 -45 -12 -67 -20 -77 -28 -7
-5 -13 -7 -13 -4 0 11 -137 -62 -208 -110 -67 -46 -178 -146 -227 -204 -65
-78 -159 -240 -202 -349 -27 -67 -69 -211 -77 -265 -4 -22 -9 -52 -11 -66 -8
-47 -20 -205 -16 -219 1 -3 4 -52 6 -110 6 -139 11 -174 49 -330 13 -52 29
-111 36 -130 18 -50 98 -218 110 -233 6 -6 24 -33 41 -59 45 -70 142 -171 223
-232 197 -148 426 -220 701 -219 138 0 193 7 315 38 66 16 272 110 278 126 2
5 8 9 13 9 9 0 71 46 109 80 84 77 124 117 148 148 15 20 32 42 38 47 16 13
85 122 105 164 l17 35 -55 33 c-31 18 -59 33 -64 33 -5 0 -9 3 -9 8 0 4 -11
12 -24 18 -23 11 -26 8 -52 -40 -15 -28 -34 -57 -41 -64 -7 -7 -13 -17 -13
-21 0 -4 -12 -22 -27 -40 -16 -18 -46 -54 -68 -80 -38 -46 -152 -134 -205
-159 -31 -14 -104 -39 -145 -48 -39 -8 -315 -13 -315 -5 0 4 -8 7 -17 8 -110
9 -256 80 -360 175 -44 41 -149 178 -137 178 4 0 0 8 -8 18 -22 26 -93 199
-91 222 0 3 -3 15 -8 27 -5 13 -11 44 -15 70 -3 27 -8 51 -10 55 -2 3 -6 30
-9 60 -3 29 -8 67 -10 83 -4 29 -7 141 -6 178 1 16 47 17 817 17 l816 0 -3
153 c-1 83 -6 162 -10 174 -5 13 -4 25 2 29 6 4 6 11 -2 20 -6 8 -9 23 -6 34
3 11 1 20 -5 20 -5 0 -8 8 -7 18 1 9 -1 24 -4 32 -4 8 -8 26 -10 40 -2 14 -7
32 -10 40 -3 8 -11 33 -16 56 -13 50 -98 219 -131 259 -112 136 -278 256 -402
290 -5 2 -9 3 -10 5 -2 1 -16 4 -33 6 -16 3 -32 9 -33 15 -2 5 -7 7 -11 5 -4
-3 -25 -1 -47 4 -103 23 -280 31 -394 18z m235 -192 c53 -13 135 -48 135 -57
0 -5 5 -9 11 -9 10 0 76 -64 113 -109 24 -30 76 -141 76 -162 0 -9 3 -19 7
-23 4 -3 8 -12 9 -19 1 -7 5 -25 9 -42 10 -47 13 -67 19 -105 8 -55 19 -180
20 -235 l1 -50 -86 -1 c-48 -1 -92 -5 -98 -8 -6 -4 -16 -4 -22 0 -6 3 -57 6
-113 5 -55 -1 -110 -2 -121 -2 -11 0 -49 0 -85 0 -36 0 -69 0 -75 0 -5 0 -56
1 -111 2 -56 1 -107 -2 -113 -5 -6 -4 -16 -4 -22 0 -10 6 -189 9 -214 4 -5 -1
-25 -2 -44 -1 l-33 1 6 77 c15 171 41 276 103 404 65 136 196 265 313 308 91
34 238 46 315 27z"/>
<path d="M22006 17373 c-1 -1 -30 -4 -65 -7 -35 -3 -65 -7 -68 -10 -3 -3 -14
-1 -24 5 -11 5 -19 6 -19 1 0 -4 -15 -8 -32 -9 -38 -1 -189 -11 -263 -17 -27
-2 -95 -7 -150 -10 -142 -9 -133 -3 -132 -96 l0 -80 28 0 c53 0 173 -31 214
-54 51 -31 91 -76 119 -135 21 -45 21 -57 23 -591 2 -574 8 -898 17 -940 10
-41 19 -94 21 -110 0 -9 3 -20 6 -25 3 -6 12 -31 19 -58 7 -26 17 -50 21 -53
5 -3 9 -14 9 -25 0 -10 3 -19 8 -19 4 0 16 -19 27 -42 26 -55 138 -167 200
-200 104 -55 258 -88 381 -81 121 7 209 17 209 23 0 1 11 3 25 5 31 4 135 49
215 93 86 46 168 110 261 203 45 44 84 77 87 72 3 -4 5 -75 5 -156 0 -189 1
-190 116 -182 89 6 169 12 291 20 44 3 105 7 135 10 48 3 247 17 275 18 13 0
40 27 28 27 -4 0 -7 29 -5 64 1 36 -1 67 -6 70 -4 2 -38 6 -75 8 -37 2 -67 7
-67 11 0 5 -4 5 -10 2 -17 -10 -93 30 -133 71 -39 39 -62 76 -75 117 -4 12 -8
478 -9 1035 -4 1145 5 1046 -86 1042 -110 -4 -192 -9 -192 -10 0 -1 -25 -3
-55 -5 -30 -2 -95 -6 -145 -9 -49 -4 -128 -9 -175 -12 -47 -3 -112 -7 -145
-10 -33 -2 -77 -5 -97 -6 -42 -1 -40 4 -40 -106 0 -29 1 -55 3 -57 2 -1 50 -6
107 -10 184 -11 201 -16 266 -81 34 -34 63 -86 81 -143 4 -14 8 -349 8 -746 0
-761 2 -736 -46 -792 -119 -137 -227 -216 -353 -257 -75 -25 -91 -27 -191 -31
-97 -4 -167 12 -230 51 -38 25 -123 115 -123 131 0 7 -4 13 -8 13 -15 0 -54
106 -68 185 -4 22 -8 451 -9 953 -2 1016 4 944 -70 946 -20 1 -38 0 -39 -1z"/>
<path d="M6902 17340 c-4 -3 -7 -173 -7 -378 l0 -372 25 -1 c53 -3 122 0 127
4 2 3 15 45 28 94 12 48 27 99 33 113 5 14 10 27 10 30 1 12 23 67 36 90 8 14
14 27 13 30 -5 21 102 138 116 128 2 -2 10 2 18 8 24 20 146 45 242 50 138 7
636 9 642 2 6 -6 -144 -240 -157 -246 -5 -2 -8 -8 -8 -13 0 -11 -42 -72 -52
-77 -5 -2 -8 -8 -8 -13 0 -8 -41 -77 -63 -104 -4 -5 -37 -55 -72 -110 -36 -55
-70 -107 -75 -115 -13 -19 -232 -353 -245 -374 -78 -123 -152 -234 -162 -244
-6 -6 -15 -21 -18 -32 -3 -11 -11 -20 -16 -20 -5 0 -9 -4 -9 -10 0 -8 -88
-147 -118 -185 -4 -5 -23 -35 -42 -65 -19 -30 -38 -56 -42 -58 -5 -2 -8 -8 -8
-13 0 -5 -29 -52 -65 -104 -36 -53 -65 -97 -65 -100 0 -4 -56 -89 -72 -110
-52 -66 -82 -125 -83 -160 -1 -23 -4 -46 -8 -52 -4 -6 -3 -14 3 -18 6 -4 8
-10 5 -15 -3 -5 -1 -12 5 -15 12 -8 1966 -9 1978 -1 4 3 7 26 7 53 -1 26 2 53
7 60 5 6 5 14 1 16 -10 7 -10 48 1 65 4 7 4 12 -1 12 -4 0 -8 34 -8 75 0 41 4
75 9 75 5 0 4 6 -1 13 -10 15 -10 127 0 145 5 6 5 12 0 12 -4 0 -8 34 -8 75 0
41 4 75 9 75 5 0 4 6 -1 13 -5 6 -8 49 -8 95 l1 82 -76 0 c-54 0 -77 -4 -77
-12 -3 -53 -137 -461 -170 -517 -31 -54 -76 -99 -111 -113 -31 -11 -165 -22
-304 -22 -53 -1 -94 -5 -91 -10 3 -4 -4 -5 -15 -2 -12 4 -43 7 -69 6 -232 -4
-333 -4 -360 1 -18 4 -33 3 -33 -1 0 -4 -17 -4 -38 0 -21 4 -48 5 -60 3 -12
-1 -22 -1 -22 2 0 3 44 71 98 152 53 82 99 152 101 156 1 4 32 51 67 103 35
52 64 99 64 104 0 4 3 10 8 12 4 2 41 55 82 118 41 63 78 117 83 118 4 2 7 8
7 12 0 8 91 149 211 328 27 40 49 77 49 82 0 6 4 10 8 10 5 0 14 11 20 25 7
14 17 31 22 38 11 12 100 148 229 347 41 63 77 117 80 120 4 3 15 22 26 43 11
20 22 37 26 37 4 0 12 14 19 30 7 17 16 30 20 30 4 0 12 11 18 25 7 14 17 31
22 38 6 7 42 60 79 118 69 106 83 142 71 189 l-6 25 -933 0 c-513 0 -936 -2
-939 -5z"/>
<path d="M9199 17330 c-1 -22 -1 -122 0 -143 1 -10 5 -16 10 -13 14 9 111 -23
183 -61 57 -30 125 -86 163 -135 12 -16 68 -145 66 -153 -1 -3 5 -18 13 -33
16 -30 20 -40 96 -222 29 -69 58 -138 65 -155 14 -32 48 -117 61 -150 4 -11 6
-23 6 -27 -1 -5 3 -8 8 -8 6 0 10 -7 10 -14 0 -8 15 -48 34 -89 19 -42 37 -89
41 -106 4 -17 11 -31 16 -31 5 0 8 -3 7 -7 -1 -5 3 -19 9 -33 6 -14 36 -88 67
-165 31 -77 61 -149 66 -160 32 -69 170 -418 170 -430 0 -8 5 -15 10 -15 6 0
10 -7 10 -16 0 -9 7 -30 15 -47 7 -18 32 -77 53 -131 l39 -99 -37 -86 c-110
-253 -295 -555 -415 -677 -72 -73 -100 -91 -109 -68 -13 34 -101 156 -142 197
-23 24 -60 52 -81 63 -21 10 -40 21 -43 24 -14 14 -168 22 -176 9 -3 -5 -14
-9 -25 -9 -10 0 -19 -4 -19 -10 0 -5 -4 -10 -10 -10 -37 0 -109 -112 -115
-178 -1 -21 -4 -38 -5 -39 -5 -6 -3 -40 5 -78 22 -108 127 -204 264 -240 83
-22 243 -13 323 17 126 47 260 160 362 302 11 15 28 37 38 48 9 11 20 29 23
39 4 11 11 19 16 19 5 0 9 7 9 15 0 8 5 15 10 15 6 0 10 4 10 10 0 5 18 38 39
74 22 35 54 92 72 127 18 35 38 67 43 71 6 4 8 8 4 8 -4 0 13 40 38 89 24 49
44 94 44 100 0 6 5 11 10 11 6 0 10 7 10 15 0 14 30 85 40 95 3 3 6 12 8 20 2
8 15 39 29 70 39 85 50 111 72 166 11 28 28 71 39 95 11 24 27 64 37 89 10 25
29 69 42 98 13 29 23 54 23 57 0 2 5 16 12 32 6 15 12 31 13 36 2 4 4 10 5 15
1 4 2 10 1 15 0 4 3 7 9 7 5 0 10 9 10 20 0 11 5 20 12 20 6 0 9 3 5 6 -5 5
23 79 72 189 10 22 31 74 47 115 15 41 31 77 34 80 3 3 11 22 19 43 7 22 25
64 39 95 14 32 27 62 28 67 1 6 12 33 25 60 12 28 24 56 25 64 2 8 8 17 14 21
7 4 12 11 11 16 0 15 11 58 19 69 3 6 17 35 30 65 12 30 33 78 46 107 13 28
24 54 24 57 0 4 11 29 25 58 14 28 25 56 25 60 0 5 25 60 56 123 47 97 65 123
117 171 55 49 199 132 242 138 8 1 17 5 21 8 8 9 8 137 -1 146 -8 8 -904 10
-906 2 -6 -31 -2 -149 6 -156 5 -5 25 -10 44 -12 31 -2 180 -58 191 -71 3 -4
17 -14 32 -24 15 -9 34 -30 41 -45 15 -29 13 -103 -4 -134 -6 -10 -7 -23 -4
-28 3 -6 1 -10 -4 -10 -6 0 -11 -4 -11 -9 0 -5 -5 -22 -12 -38 -6 -15 -12 -31
-13 -35 -2 -5 -4 -10 -5 -13 -1 -3 -3 -8 -4 -12 -2 -12 -96 -251 -116 -298
-10 -22 -25 -62 -35 -90 -10 -27 -22 -54 -25 -60 -4 -5 -11 -21 -15 -35 -4
-14 -16 -43 -25 -65 -48 -107 -114 -271 -112 -277 1 -5 -2 -8 -8 -8 -5 0 -10
-6 -10 -14 0 -13 -14 -47 -62 -156 -11 -24 -21 -49 -23 -55 -2 -12 -27 -69
-62 -145 -16 -34 -27 -49 -30 -40 -3 8 -14 34 -24 57 -11 23 -19 48 -19 55 0
8 -7 23 -15 34 -8 12 -11 24 -8 28 3 3 1 6 -6 6 -7 0 -10 4 -6 9 3 5 1 12 -5
16 -5 3 -10 13 -10 21 0 8 -9 36 -21 62 -29 66 -28 62 -129 307 -51 121 -93
225 -94 230 -2 6 -8 21 -14 35 -58 136 -164 398 -165 408 0 6 -4 12 -9 12 -4
0 -8 9 -8 19 0 11 -5 23 -10 26 -6 4 -8 10 -5 15 3 5 1 11 -5 15 -5 3 -10 13
-10 22 0 8 -6 29 -14 46 -19 41 -46 124 -46 140 0 15 56 52 95 62 86 22 130
31 170 34 18 1 20 8 20 88 l0 88 -563 0 c-495 0 -562 -1 -563 -15z"/>
<path d="M1220 11909 c-30 -4 -65 -10 -77 -13 -13 -3 -32 -8 -44 -11 -46 -10
-147 -67 -191 -108 -27 -24 -48 -47 -48 -51 0 -3 -12 -25 -27 -49 -14 -23 -26
-43 -25 -44 1 -2 2 -4 1 -5 -13 -45 -21 -197 -10 -213 4 -5 13 -27 20 -49 41
-121 191 -213 449 -276 23 -5 59 -14 80 -19 20 -6 49 -12 64 -15 42 -7 115
-31 178 -58 91 -39 142 -117 136 -207 -4 -58 -42 -130 -84 -159 -31 -21 -112
-63 -112 -58 0 2 -24 -2 -54 -9 -57 -13 -183 -13 -251 0 -144 28 -262 131
-291 255 -4 19 -9 38 -10 43 -1 4 -2 13 -3 21 -1 10 -9 13 -28 9 -16 -3 -53
-6 -83 -7 -31 -1 -61 -5 -67 -9 -18 -11 -3 -106 27 -174 10 -23 16 -43 14 -46
-3 -2 2 -10 11 -17 8 -7 15 -17 15 -22 0 -5 6 -16 14 -24 8 -7 23 -24 33 -37
26 -33 108 -94 157 -116 136 -62 336 -82 502 -51 35 7 66 12 68 12 13 -1 144
68 166 88 14 12 35 30 48 40 30 24 90 125 103 175 6 22 12 61 14 86 1 26 6 52
9 57 3 6 2 13 -3 16 -5 3 -12 29 -16 56 -4 28 -11 50 -16 50 -5 0 -8 3 -7 8
10 37 -147 192 -196 192 -8 0 -16 5 -18 11 -2 5 -10 11 -18 13 -17 3 -28 7
-80 25 -19 7 -41 13 -47 14 -7 0 -13 4 -13 9 0 5 -4 7 -9 3 -5 -3 -81 13 -168
35 -87 23 -167 43 -177 45 -11 3 -24 9 -30 15 -5 5 -17 10 -26 10 -23 0 -90
58 -102 89 -55 138 32 259 210 292 52 10 198 7 247 -4 117 -29 184 -95 219
-218 l16 -56 47 5 c27 3 66 5 88 6 52 1 57 20 33 110 -17 61 -91 196 -108 196
-4 0 -15 9 -27 19 -97 90 -319 143 -503 120z"/>
<path d="M9907 11914 c-1 -2 -19 -5 -39 -8 -75 -9 -153 -68 -182 -137 -21 -51
-26 -81 -27 -191 -1 -93 -2 -98 -22 -98 -12 0 -30 0 -39 0 -10 0 -34 0 -54 1
-19 0 -37 -1 -39 -2 -4 -4 -7 -79 -6 -119 1 -25 2 -26 79 -25 l77 0 2 -459 c1
-295 5 -462 11 -468 14 -14 149 -13 166 1 13 11 15 38 3 57 -3 6 -3 14 0 18
10 9 10 86 0 86 -5 0 -5 5 -1 11 10 16 11 109 1 109 -5 0 -5 6 0 13 8 13 11
67 3 67 -3 0 -5 11 -5 25 0 14 2 25 5 25 3 0 5 29 5 65 0 36 -4 65 -8 65 -5 0
-5 6 -1 12 11 17 12 48 3 48 -5 0 -6 6 -3 13 9 24 10 87 2 87 -5 0 -6 6 -2 12
11 17 12 48 3 48 -4 0 -4 12 -1 28 9 33 8 75 -2 91 -4 6 -3 11 2 11 6 0 9 8 8
17 -1 16 10 18 99 18 l100 0 3 72 3 72 -88 1 c-48 0 -96 1 -106 1 -9 0 -15 4
-12 9 3 5 1 11 -5 15 -6 4 -7 12 -3 18 10 17 11 47 1 47 -5 0 -7 4 -3 9 3 6 8
29 11 53 12 89 45 110 174 112 77 1 85 3 86 21 1 11 3 22 4 25 2 6 8 43 14 82
4 25 1 27 -37 33 -54 7 -175 13 -180 9z"/>
<path d="M2371 11146 l-1 -744 33 -1 c58 -2 112 -3 132 -2 20 1 20 8 21 314 0
365 4 420 37 487 43 89 151 149 257 144 113 -6 182 -57 207 -154 3 -14 7 -191
9 -395 1 -203 3 -375 3 -381 1 -6 9 -11 19 -12 35 -4 155 -2 159 2 6 6 4 764
-2 796 -2 14 -7 41 -11 60 -3 19 -10 40 -15 46 -5 6 -6 14 -2 17 3 4 1 7 -6 7
-7 0 -10 4 -7 8 8 13 -66 87 -114 115 -40 23 -113 44 -132 39 -5 -1 -8 1 -8 6
0 7 -104 6 -145 -1 -88 -16 -162 -53 -216 -108 -16 -16 -30 -27 -30 -24 -1 3
-3 118 -4 255 -1 138 -3 255 -4 260 0 6 -38 10 -90 10 l-90 0 0 -744z"/>
<path d="M5100 11146 l0 -744 40 -4 c22 -2 40 0 40 5 0 4 5 5 11 2 16 -11 81
-8 88 3 3 6 6 340 6 744 l-1 733 -92 3 -92 3 0 -745z"/>
<path d="M19010 11786 c0 -85 3 -105 16 -110 10 -4 13 -2 8 6 -5 7 -3 8 6 3 7
-5 44 -9 82 -9 54 -1 68 2 69 14 1 23 1 173 0 188 -1 8 -26 12 -91 12 l-90 0
0 -104z"/>
<path d="M21849 11873 c0 -10 -1 -336 -2 -725 -1 -467 1 -708 8 -708 6 0 5 -4
-2 -8 -7 -4 -9 -13 -4 -21 6 -9 47 -13 160 -14 83 -1 151 1 151 5 0 4 6 5 14
2 20 -8 106 -10 106 -3 0 4 14 4 31 0 17 -3 62 -4 101 -1 38 3 72 2 75 -2 2
-5 10 -5 16 -1 7 4 28 9 47 10 127 12 218 47 292 112 46 41 104 140 114 197 3
15 8 32 11 37 11 18 3 159 -12 192 -7 19 -11 35 -7 35 4 0 3 4 -3 8 -5 4 -19
23 -29 42 -20 34 -80 100 -92 100 -3 0 -18 9 -33 19 -15 11 -39 23 -54 26 -38
10 -41 20 -9 36 24 13 91 76 117 111 33 44 48 98 51 179 2 80 -1 92 -32 156
-18 39 -51 88 -73 109 -40 40 -128 91 -172 99 -13 3 -35 8 -49 12 -14 4 -181
8 -372 10 -331 4 -348 3 -349 -14z m637 -167 c141 -17 208 -79 218 -202 8
-116 -57 -205 -170 -229 -57 -13 -484 -13 -485 -1 -1 6 -2 106 -3 221 l-1 210
40 5 c49 6 344 3 401 -4z m74 -633 c50 -14 53 -15 76 -23 51 -20 114 -94 122
-145 10 -69 7 -125 -9 -169 -19 -51 -73 -116 -96 -116 -7 0 -13 -5 -13 -12 0
-6 -3 -8 -6 -5 -4 3 -14 2 -23 -3 -9 -4 -37 -12 -61 -16 -45 -7 -462 -13 -490
-6 -13 3 -15 36 -14 245 1 133 2 247 3 254 1 14 456 10 511 -4z"/>
<path d="M5955 11837 c-11 -7 -22 -15 -25 -18 -3 -3 -31 -20 -62 -38 -47 -26
-58 -37 -59 -59 0 -15 0 -75 0 -133 0 -118 6 -110 -84 -109 l-51 0 2 -62 c0
-35 1 -68 2 -73 1 -6 26 -10 55 -10 28 1 57 0 64 -3 8 -2 11 -97 11 -362 0
-447 3 -465 65 -523 58 -55 151 -72 280 -53 50 8 49 6 32 106 -4 19 -7 41 -7
48 -1 12 -13 16 -33 12 -60 -12 -129 11 -144 48 -7 18 -10 145 -8 377 l2 350
82 0 c45 0 85 4 90 8 4 5 8 35 9 68 0 47 -3 62 -16 69 -10 5 -21 6 -25 2 -8
-9 -65 -9 -65 -1 0 4 -16 3 -34 -1 -19 -4 -37 -5 -40 -2 -4 3 -6 88 -6 189 0
101 -3 183 -7 182 -5 0 -17 -6 -28 -12z"/>
<path d="M16345 11820 c-22 -16 -43 -29 -48 -30 -4 0 -23 -10 -42 -22 l-35
-23 1 -129 c1 -97 -2 -131 -12 -137 -7 -4 -19 -3 -25 2 -8 6 -14 7 -18 0 -4
-6 -18 -6 -36 -1 -19 6 -32 4 -37 -3 -7 -10 -9 -77 -4 -133 1 -7 23 -10 61 -9
33 1 62 -1 65 -5 2 -3 5 -175 6 -381 2 -466 5 -480 113 -536 41 -21 62 -25
135 -24 47 0 95 3 106 5 11 2 24 5 29 5 5 1 6 20 2 44 -4 23 -9 57 -11 75 -6
46 -12 52 -43 43 -47 -12 -111 1 -126 26 -20 34 -22 68 -22 408 l1 340 90 0
89 0 1 70 0 70 -82 1 c-46 0 -86 4 -90 8 -5 4 -9 80 -9 169 -2 197 -2 197 -11
197 -5 -1 -26 -14 -48 -30z"/>
<path d="M26228 11843 c-10 -2 -18 -8 -18 -13 0 -4 -15 -15 -32 -25 -18 -9
-49 -26 -68 -38 l-36 -22 1 -127 c1 -144 3 -140 -80 -142 l-50 -1 0 -70 0 -70
63 0 c34 1 63 -2 63 -5 1 -3 2 -167 4 -365 2 -390 6 -444 38 -490 20 -28 59
-63 65 -57 1 1 16 -5 33 -13 30 -16 158 -23 204 -11 11 2 28 5 39 5 14 1 17 6
11 24 -3 12 -7 29 -7 37 0 8 -5 36 -10 62 -8 42 -12 46 -31 40 -12 -4 -31 -6
-42 -6 -11 1 -30 2 -42 3 -29 1 -73 46 -74 74 -4 124 -1 686 4 694 4 7 38 10
88 8 53 -1 82 1 85 9 2 6 5 39 7 73 l2 61 -47 -1 c-26 0 -50 2 -54 5 -3 4 -18
3 -33 -2 -16 -4 -34 -4 -41 0 -15 9 -19 55 -8 88 4 12 4 22 -1 22 -9 0 -6 94
4 110 3 5 2 10 -3 10 -5 0 -7 32 -5 70 1 39 -1 69 -5 69 -4 -1 -15 -3 -24 -6z"/>
<path d="M4147 11504 c-1 -1 -27 -5 -57 -9 -214 -27 -381 -213 -406 -451 -8
-73 -3 -269 6 -269 1 0 3 -8 5 -17 9 -49 41 -128 68 -168 37 -54 100 -120 116
-120 6 0 11 -4 11 -9 0 -13 113 -60 177 -73 100 -20 242 -11 324 21 13 5 29
10 34 11 20 5 95 61 130 98 38 40 105 163 105 193 0 19 0 19 -95 23 -19 0 -35
4 -35 7 0 4 -12 6 -26 5 -21 -1 -31 -10 -48 -46 -11 -25 -33 -58 -48 -75 -16
-16 -28 -33 -28 -36 0 -4 -27 -18 -59 -33 -83 -37 -178 -38 -255 -3 -60 28
-123 85 -145 133 -7 16 -18 37 -23 48 -15 28 -20 56 -22 110 l-1 49 398 0 398
0 -2 86 c-1 47 -6 101 -11 120 -5 18 -11 41 -13 50 -7 35 -40 108 -69 151 -84
126 -218 195 -394 205 -18 1 -33 0 -35 -1z m174 -185 c36 -18 126 -111 122
-126 -1 -5 2 -12 7 -18 7 -10 23 -83 24 -115 1 -13 -38 -15 -289 -16 -288 -1
-319 1 -310 16 3 4 7 25 11 46 19 118 132 229 248 242 22 2 42 5 44 7 7 6 111
-19 143 -36z"/>
<path d="M6945 11501 c-4 -4 -48 -11 -75 -13 -44 -2 -159 -68 -213 -122 -55
-55 -123 -167 -110 -180 4 -3 0 -6 -7 -6 -7 0 -11 -3 -7 -6 3 -3 1 -17 -4 -31
-14 -37 -22 -91 -23 -145 0 -27 -4 -48 -9 -48 -4 0 -5 -4 -2 -10 3 -5 8 -40
11 -77 6 -90 9 -106 16 -119 4 -6 9 -23 12 -38 15 -82 104 -200 192 -254 149
-92 370 -102 534 -23 54 26 150 109 150 130 0 6 4 11 9 11 12 0 73 142 64 151
-7 6 -54 13 -153 23 -25 2 -49 -18 -50 -41 0 -14 -36 -69 -65 -100 -73 -77
-228 -97 -339 -43 -82 39 -154 136 -171 230 -17 100 -17 100 2 101 10 0 189 1
398 1 223 1 383 5 386 10 14 21 -3 194 -27 265 -31 97 -48 124 -125 203 -52
53 -114 91 -189 115 -39 12 -197 25 -205 16z m195 -179 c54 -26 118 -98 135
-152 17 -55 24 -89 21 -105 -3 -19 -11 -20 -296 -20 -276 0 -293 1 -296 18 -3
24 24 114 44 146 23 36 78 91 91 91 6 0 11 4 11 9 0 9 87 38 130 43 36 5 119
-11 160 -30z"/>
<path d="M8255 11491 c-45 -17 -98 -67 -135 -126 l-25 -40 -5 75 c-3 50 -9 76
-18 78 -19 4 -53 4 -90 -1 -18 -2 -36 1 -39 6 -3 5 -8 5 -12 -1 -8 -14 -7
-1069 1 -1078 8 -8 127 -9 134 -1 3 3 12 3 19 1 7 -3 16 -1 19 4 3 5 6 153 6
329 1 348 10 425 56 494 54 79 149 101 259 59 34 -13 35 -13 35 4 0 8 5 27 12
43 6 15 12 30 12 33 1 3 4 10 7 15 4 6 9 22 13 36 5 24 1 29 -37 47 -77 36
-154 45 -212 23z"/>
<path d="M10784 11499 c-2 -3 -16 -5 -31 -4 -68 4 -196 -59 -267 -131 -73 -74
-86 -96 -123 -199 -2 -5 -9 -44 -16 -85 -22 -126 -11 -292 25 -385 32 -82 42
-105 50 -105 5 0 8 -6 8 -13 0 -33 132 -137 210 -166 286 -107 591 31 679 307
22 69 30 231 18 347 -23 219 -191 399 -404 431 -59 9 -144 11 -149 3z m50
-151 c4 6 12 9 19 7 7 -2 25 -7 40 -9 47 -8 97 -27 97 -37 0 -5 5 -9 12 -9 17
0 86 -76 107 -119 16 -32 22 -48 38 -111 2 -8 5 -58 7 -110 3 -95 -12 -189
-40 -257 -19 -43 -110 -137 -149 -151 -204 -76 -392 34 -430 253 -30 174 3
357 80 443 43 48 121 94 161 96 13 1 26 5 30 9 4 4 11 2 15 -4 4 -8 8 -8 13
-1z"/>
<path d="M12117 11496 c-55 -13 -107 -53 -145 -113 -15 -24 -30 -43 -33 -43
-3 0 -7 30 -8 67 -2 66 -14 91 -36 74 -11 -8 -61 -8 -70 1 -13 13 -53 -5 -57
-25 -6 -38 -2 -1046 4 -1053 6 -5 107 -8 133 -4 6 1 18 2 28 1 11 -2 17 5 17
18 0 12 1 157 1 324 0 166 4 326 9 356 27 159 121 235 257 207 12 -3 31 -10
43 -16 28 -15 36 -8 56 53 9 28 19 57 23 62 25 44 -28 78 -154 99 -11 1 -41
-2 -68 -8z"/>
<path d="M13877 11498 c-82 -11 -137 -38 -201 -100 l-55 -53 2 64 c2 56 0 64
-18 71 -11 4 -24 5 -30 1 -12 -8 -67 -7 -81 2 -6 3 -16 2 -24 -3 -13 -8 -15
-114 -16 -737 0 -400 3 -735 7 -743 5 -12 24 -15 86 -13 43 0 82 2 87 2 5 1 6
14 3 30 -3 15 -1 33 4 38 8 8 7 13 0 17 -7 4 -7 15 -1 30 5 13 6 27 3 30 -8 8
-11 68 -4 81 7 14 9 45 2 45 -3 0 -5 33 -3 72 1 40 2 96 2 124 l0 52 36 -35
c84 -79 203 -112 327 -89 43 8 119 37 149 58 14 10 31 18 38 18 6 0 8 5 5 10
-3 6 -2 10 4 10 20 0 89 82 118 142 54 110 71 185 73 324 2 75 -15 186 -34
239 -86 228 -261 343 -479 313z m145 -162 c41 -20 118 -93 118 -113 0 -7 5
-13 10 -13 6 0 10 -4 10 -9 0 -5 5 -22 12 -38 29 -71 40 -223 25 -332 -25
-181 -136 -300 -279 -301 -63 -1 -73 1 -118 23 -74 36 -128 104 -156 197 -17
56 -25 265 -12 322 31 137 112 240 213 276 43 14 134 8 177 -12z"/>
<path d="M15248 11505 c-2 -1 -28 -5 -59 -8 -54 -6 -69 -9 -106 -24 -10 -3
-20 -7 -23 -8 -74 -23 -194 -134 -228 -210 -8 -16 -12 -30 -10 -31 1 0 -2 -7
-9 -15 -19 -23 -39 -104 -47 -184 -2 -27 -5 -54 -6 -60 -1 -5 -2 -12 -1 -15 1
-3 4 -36 6 -75 7 -130 35 -219 94 -305 105 -151 310 -222 520 -183 42 8 82 15
89 15 6 1 12 5 12 10 0 4 9 8 19 8 44 0 201 148 201 189 0 6 4 11 8 11 5 0 14
18 21 41 7 23 14 46 17 53 3 7 -8 13 -29 14 -18 1 -44 5 -57 8 -14 2 -41 6
-61 8 -35 3 -38 1 -60 -47 -109 -232 -433 -225 -546 12 -14 31 -27 65 -27 76
-1 11 -4 25 -7 30 -12 23 -10 75 3 76 7 0 188 1 403 2 l390 2 -1 50 c-1 82
-14 174 -30 218 -9 23 -16 48 -16 55 -1 6 -6 12 -11 12 -6 0 -8 3 -4 6 14 14
-114 174 -140 174 -7 0 -13 4 -13 10 0 16 -129 70 -183 76 -68 8 -107 11 -109
9z m92 -165 c117 -22 204 -126 215 -260 l3 -35 -296 0 c-335 0 -313 -7 -285
87 26 89 92 165 168 196 48 20 117 29 155 21 19 -5 37 -8 40 -9z"/>
<path d="M17260 11499 c-88 -16 -106 -21 -155 -44 -111 -50 -169 -143 -169
-266 0 -66 4 -83 31 -130 33 -59 124 -130 168 -133 14 0 25 -4 25 -8 0 -5 11
-8 25 -8 14 0 25 -5 25 -12 0 -6 3 -9 6 -6 3 4 20 2 37 -4 18 -5 39 -11 47
-13 8 -2 16 -4 18 -5 2 -3 6 -4 57 -14 22 -4 44 -11 50 -14 5 -4 12 -7 15 -7
34 -3 107 -34 130 -55 36 -34 46 -71 31 -121 -27 -89 -109 -133 -249 -131 -94
1 -170 31 -210 83 -26 33 -51 83 -56 111 -2 15 -10 23 -22 22 -32 -1 -152 -19
-160 -23 -7 -4 22 -96 43 -138 27 -55 109 -146 124 -137 5 3 9 1 9 -4 0 -13
104 -51 160 -58 58 -8 174 -8 225 0 135 20 261 106 305 208 41 95 31 217 -25
292 -44 59 -147 107 -345 160 -58 16 -131 37 -190 55 -141 44 -129 204 18 241
44 11 149 15 188 6 74 -16 138 -74 151 -136 l6 -32 66 8 c36 3 75 8 86 10 11
1 23 3 26 3 4 1 3 19 -2 42 -38 168 -171 253 -409 263 -25 1 -61 -2 -80 -5z"/>
<path d="M20110 11496 c-90 -16 -156 -50 -215 -112 l-51 -52 1 69 c1 47 -3 73
-12 80 -9 8 -13 8 -13 1 0 -6 -8 -9 -18 -7 -21 4 -89 8 -110 6 -8 -1 -12 -14
-12 -33 1 -18 1 -258 0 -532 -1 -315 2 -502 9 -509 9 -9 69 -11 146 -4 l29 2
2 355 c1 228 5 364 12 381 6 15 8 30 5 33 -4 3 -1 6 5 6 7 0 12 9 12 20 0 11
3 20 8 20 4 0 15 13 24 30 18 31 121 89 151 85 9 -2 17 0 17 4 0 4 19 6 43 5
23 -1 42 -3 42 -4 0 -1 13 -3 30 -5 52 -7 136 -81 143 -128 1 -4 4 -24 8 -44
4 -21 7 -200 8 -398 1 -336 2 -360 19 -359 9 1 17 -1 17 -5 0 -4 103 -6 141
-2 3 1 5 187 4 414 -1 315 -5 423 -15 457 -13 43 -69 140 -80 140 -4 0 -15 8
-26 18 -10 10 -41 27 -69 39 -84 36 -161 44 -255 29z"/>
<path d="M23794 11499 c-2 -3 -16 -6 -31 -7 -72 -2 -192 -64 -266 -137 -72
-72 -133 -233 -132 -352 0 -29 -3 -53 -7 -53 -4 0 -3 -11 2 -25 6 -15 6 -26
-1 -30 -5 -4 -6 -11 -3 -17 4 -5 8 -24 9 -41 28 -282 220 -458 500 -460 190
-2 367 99 440 250 52 105 54 118 62 284 9 206 -41 356 -156 462 -59 54 -130
97 -160 97 -9 0 -21 4 -26 9 -17 16 -222 34 -231 20z m187 -172 c95 -39 176
-153 193 -271 9 -55 9 -187 1 -231 -10 -53 -38 -135 -47 -135 -4 0 -8 -7 -8
-16 0 -21 -78 -96 -123 -117 -81 -39 -191 -38 -269 3 -78 40 -154 144 -160
219 -1 18 -6 35 -10 37 -4 3 -7 57 -6 121 1 121 17 197 54 264 37 66 147 151
174 134 5 -3 12 0 15 5 11 18 134 9 186 -13z"/>
<path d="M25074 11501 c-3 -3 -10 -6 -17 -7 -7 -1 -26 -4 -44 -7 -18 -3 -56
-16 -85 -30 -196 -90 -237 -330 -81 -472 28 -26 127 -73 166 -79 7 -1 18 -5
25 -9 6 -5 12 -6 12 -2 0 3 16 -1 35 -9 20 -9 39 -16 43 -16 48 -6 222 -60
249 -77 42 -28 70 -113 46 -137 -5 -4 -8 -11 -8 -14 0 -4 -8 -19 -18 -33 -22
-33 -85 -68 -137 -75 -23 -3 -48 -7 -56 -8 -33 -5 -133 13 -170 30 -60 28
-110 93 -128 167 -7 31 -8 31 -116 10 -14 -3 -34 -6 -45 -7 -16 -1 -20 -7 -17
-36 1 -19 6 -37 10 -40 4 -3 8 -13 10 -23 4 -22 39 -85 67 -118 114 -139 411
-177 611 -79 72 35 126 87 157 150 27 56 28 61 31 135 5 111 -46 195 -147 243
-62 30 -125 53 -182 68 -16 4 -34 8 -40 10 -38 12 -94 26 -117 31 -16 3 -28 9
-28 13 0 4 -8 7 -17 6 -66 -3 -153 69 -153 126 0 60 66 124 140 134 58 8 150
5 191 -7 54 -17 115 -78 129 -130 6 -22 15 -37 19 -35 5 3 33 8 62 12 30 4 61
8 69 10 8 1 20 3 26 3 29 2 -28 144 -80 197 -42 43 -155 91 -234 100 -72 8
-172 10 -178 5z"/>
<path d="M27248 11505 c-2 -1 -28 -5 -59 -8 -54 -6 -69 -9 -106 -24 -10 -3
-20 -7 -23 -8 -27 -7 -98 -54 -142 -94 -51 -47 -112 -142 -124 -193 -40 -170
-40 -344 0 -473 8 -27 27 -72 36 -85 6 -8 14 -24 19 -35 13 -27 58 -74 106
-110 22 -17 43 -34 47 -40 4 -5 8 -6 8 -1 0 5 6 4 13 -2 7 -6 33 -18 57 -26
198 -67 420 -19 555 119 45 46 105 153 105 186 0 11 3 18 8 16 4 -3 9 14 11
36 7 73 6 311 -1 342 -26 116 -59 176 -138 255 -64 64 -135 110 -169 110 -9 0
-21 4 -26 9 -10 9 -54 17 -137 25 -21 2 -39 2 -40 1z m124 -173 c8 -6 18 -9
21 -5 4 3 7 1 7 -5 0 -7 7 -12 15 -12 32 0 131 -124 139 -174 1 -6 4 -15 8
-21 10 -17 21 -116 20 -183 -2 -148 -36 -250 -107 -318 -178 -170 -451 -81
-509 167 -14 63 -16 253 -2 314 23 100 90 186 177 228 46 22 66 26 135 24 47
-1 87 -7 96 -15z"/>
<path d="M28628 11497 c-38 -5 -68 -14 -68 -19 0 -5 -5 -6 -10 -3 -14 9 -132
-71 -155 -105 -11 -16 -23 -26 -27 -24 -5 3 -7 34 -6 68 l3 63 -47 2 c-65 2
-69 2 -98 -1 l-25 -3 0 -533 -1 -533 25 -6 c22 -6 65 -7 132 -4 l26 1 1 320
c0 425 7 471 86 550 46 46 157 82 227 74 38 -5 107 -35 135 -60 55 -50 58 -73
59 -504 l0 -375 25 -5 c14 -3 42 -3 63 1 20 3 39 3 42 -1 7 -11 55 1 56 14 0
6 0 180 0 387 0 369 -3 446 -22 481 -5 10 -7 18 -5 18 3 0 -7 21 -22 48 -37
62 -93 104 -178 131 -83 26 -126 30 -216 18z"/>
<path d="M19095 11480 c-3 -5 -24 -6 -46 -3 -33 5 -41 3 -37 -8 3 -8 1 -22 -4
-31 -6 -12 -5 -18 2 -18 8 0 8 -6 0 -20 -6 -11 -7 -20 -3 -20 4 0 7 -219 6
-487 -2 -350 1 -489 9 -494 6 -4 23 -3 39 1 15 5 30 6 33 3 7 -8 80 -8 92 0
12 7 11 1066 -1 1069 -69 13 -86 14 -90 8z"/>
</g>
</svg>
